<svg width="200" height="100" viewBox="0 0 200 100" fill="none" xmlns="http://www.w3.org/2000/svg">
<path fill-rule="evenodd" clip-rule="evenodd" d="M3 52H197V96C197 96.5523 196.552 97 196 97H4C3.44772 97 3 96.5523 3 96V52ZM0 4V52V96C0 98.2091 1.79086 100 4 100H196C198.209 100 200 98.2091 200 96V52V4C200 1.79086 198.209 0 196 0H4C1.92893 0 0.225492 1.574 0.0206516 3.59103C0.00699555 3.72549 0 3.86193 0 4ZM159.843 41.84C160.936 42.1867 162.349 42.3734 164.083 42.4L164.923 37.48C164.203 37.4267 163.629 37.3067 163.203 37.12C162.776 36.9334 162.443 36.6934 162.203 36.4C161.989 36.1067 161.843 35.7467 161.763 35.32C161.683 34.8934 161.643 34.4134 161.643 33.88V10.96L155.683 11.92V35.08C155.683 36.2 155.789 37.2134 156.003 38.12C156.243 39 156.669 39.76 157.283 40.4C157.923 41.0134 158.776 41.4934 159.843 41.84ZM36.2 42V14.28H54.76V19.52H42.44V25.32H53.4V30.56H42.44V42H36.2ZM70.6674 26.24C70.1341 26.1067 69.5074 25.9734 68.7874 25.84C68.0675 25.68 67.2941 25.6 66.4675 25.6C66.0941 25.6 65.6408 25.64 65.1075 25.72C64.6008 25.7734 64.2141 25.84 63.9474 25.92V42H57.9874V22.08C59.0541 21.7067 60.3074 21.36 61.7475 21.04C63.2141 20.6934 64.8408 20.52 66.6275 20.52C66.9475 20.52 67.3341 20.5467 67.7875 20.6C68.2408 20.6267 68.6941 20.68 69.1474 20.76C69.6008 20.8134 70.0541 20.8934 70.5074 21C70.9608 21.08 71.3475 21.1867 71.6674 21.32L70.6674 26.24ZM84.1918 37.8C83.6585 37.8267 83.0985 37.84 82.5118 37.84C81.4185 37.84 80.5518 37.6667 79.9118 37.32C79.2985 36.9467 78.9918 36.2934 78.9918 35.36C78.9918 34.88 79.0985 34.48 79.3118 34.16C79.5252 33.84 79.8185 33.5867 80.1918 33.4C80.5652 33.2134 80.9918 33.0934 81.4718 33.04C81.9785 32.96 82.5118 32.92 83.0718 32.92C83.4718 32.92 83.9118 32.9467 84.3918 33C84.8718 33.0534 85.2318 33.1067 85.4718 33.16V37.68C85.1518 37.7334 84.7252 37.7734 84.1918 37.8ZM86.4318 21C85.2585 20.6 83.7918 20.4 82.0318 20.4C81.3385 20.4 80.6452 20.44 79.9518 20.52C79.2852 20.5734 78.6452 20.6534 78.0318 20.76C77.4185 20.84 76.8452 20.9467 76.3118 21.08C75.8052 21.1867 75.3785 21.2934 75.0318 21.4L75.7918 26.2C76.5118 25.9334 77.3652 25.7334 78.3518 25.6C79.3385 25.44 80.3385 25.36 81.3518 25.36C82.8718 25.36 83.9385 25.6667 84.5518 26.28C85.1652 26.8934 85.4718 27.7067 85.4718 28.72V29.28C85.0985 29.1734 84.6052 29.0934 83.9918 29.04C83.4052 28.96 82.7252 28.92 81.9518 28.92C80.8052 28.92 79.6985 29.04 78.6318 29.28C77.5652 29.4934 76.6185 29.8534 75.7918 30.36C74.9652 30.8667 74.2985 31.5467 73.7918 32.4C73.3118 33.2534 73.0718 34.2934 73.0718 35.52C73.0718 36.8 73.2852 37.88 73.7118 38.76C74.1385 39.64 74.7518 40.36 75.5518 40.92C76.3518 41.4534 77.2985 41.84 78.3918 42.08C79.5118 42.32 80.7518 42.44 82.1118 42.44C84.2718 42.44 86.1118 42.3067 87.6318 42.04C89.1518 41.8 90.3385 41.5867 91.1918 41.4V29C91.1918 27.6934 91.0452 26.5067 90.7518 25.44C90.4585 24.3734 89.9518 23.4667 89.2318 22.72C88.5385 21.9734 87.6052 21.4 86.4318 21ZM95.5812 31.48C95.5812 29.96 95.8212 28.5334 96.3012 27.2C96.8079 25.84 97.5279 24.6667 98.4612 23.68C99.3945 22.6667 100.528 21.8667 101.861 21.28C103.195 20.6934 104.715 20.4 106.421 20.4C107.541 20.4 108.568 20.5067 109.501 20.72C110.435 20.9067 111.341 21.1867 112.221 21.56L110.981 26.32C110.421 26.1067 109.808 25.92 109.141 25.76C108.475 25.6 107.728 25.52 106.901 25.52C105.141 25.52 103.821 26.0667 102.941 27.16C102.088 28.2534 101.661 29.6934 101.661 31.48C101.661 33.3734 102.061 34.84 102.861 35.88C103.688 36.92 105.115 37.44 107.141 37.44C107.861 37.44 108.635 37.3734 109.461 37.24C110.288 37.1067 111.048 36.8934 111.741 36.6L112.581 41.48C111.888 41.7734 111.021 42.0267 109.981 42.24C108.941 42.4534 107.795 42.56 106.541 42.56C104.621 42.56 102.968 42.28 101.581 41.72C100.195 41.1334 99.0479 40.3467 98.1412 39.36C97.2612 38.3734 96.6079 37.2134 96.1812 35.88C95.7812 34.52 95.5812 33.0534 95.5812 31.48ZM122.341 14.76L116.381 15.72V33.4C116.381 34.76 116.501 36 116.741 37.12C117.008 38.24 117.461 39.2 118.101 40C118.741 40.7734 119.595 41.3867 120.661 41.84C121.728 42.2667 123.075 42.48 124.701 42.48C125.981 42.48 127.061 42.3734 127.941 42.16C128.821 41.9467 129.621 41.6934 130.341 41.4L129.501 36.76C128.941 36.9734 128.315 37.1467 127.621 37.28C126.955 37.3867 126.301 37.44 125.661 37.44C124.328 37.44 123.435 37.0667 122.981 36.32C122.555 35.5734 122.341 34.5734 122.341 33.32V25.92H129.501V20.96H122.341V14.76ZM141.613 37.84C142.2 37.84 142.76 37.8267 143.293 37.8C143.827 37.7734 144.253 37.7334 144.573 37.68V33.16C144.333 33.1067 143.973 33.0534 143.493 33C143.013 32.9467 142.573 32.92 142.173 32.92C141.613 32.92 141.08 32.96 140.573 33.04C140.093 33.0934 139.667 33.2134 139.293 33.4C138.92 33.5867 138.627 33.84 138.413 34.16C138.2 34.48 138.093 34.88 138.093 35.36C138.093 36.2934 138.4 36.9467 139.013 37.32C139.653 37.6667 140.52 37.84 141.613 37.84ZM141.133 20.4C142.893 20.4 144.36 20.6 145.533 21C146.707 21.4 147.64 21.9734 148.333 22.72C149.053 23.4667 149.56 24.3734 149.853 25.44C150.147 26.5067 150.293 27.6934 150.293 29V41.4C149.44 41.5867 148.253 41.8 146.733 42.04C145.213 42.3067 143.373 42.44 141.213 42.44C139.853 42.44 138.613 42.32 137.493 42.08C136.4 41.84 135.453 41.4534 134.653 40.92C133.853 40.36 133.24 39.64 132.813 38.76C132.387 37.88 132.173 36.8 132.173 35.52C132.173 34.2934 132.413 33.2534 132.893 32.4C133.4 31.5467 134.067 30.8667 134.893 30.36C135.72 29.8534 136.667 29.4934 137.733 29.28C138.8 29.04 139.907 28.92 141.053 28.92C141.827 28.92 142.507 28.96 143.093 29.04C143.707 29.0934 144.2 29.1734 144.573 29.28V28.72C144.573 27.7067 144.267 26.8934 143.653 26.28C143.04 25.6667 141.973 25.36 140.453 25.36C139.44 25.36 138.44 25.44 137.453 25.6C136.467 25.7334 135.613 25.9334 134.893 26.2L134.133 21.4C134.48 21.2934 134.907 21.1867 135.413 21.08C135.947 20.9467 136.52 20.84 137.133 20.76C137.747 20.6534 138.387 20.5734 139.053 20.52C139.747 20.44 140.44 20.4 141.133 20.4ZM130.886 81.76C130.059 80.64 129.646 79.16 129.646 77.32C129.646 73.48 131.059 71.56 133.886 71.56C134.499 71.56 135.099 71.64 135.686 71.8C136.299 71.96 136.792 72.16 137.166 72.4V83.24C136.872 83.2934 136.499 83.3467 136.046 83.4C135.592 83.4267 135.099 83.44 134.566 83.44C132.939 83.44 131.712 82.88 130.886 81.76ZM141.286 87.8C141.979 87.64 142.592 87.48 143.126 87.32V56.96L137.166 57.92V67.44C136.499 67.1467 135.832 66.92 135.166 66.76C134.526 66.6 133.792 66.52 132.966 66.52C131.472 66.52 130.139 66.7734 128.966 67.28C127.819 67.7867 126.846 68.52 126.046 69.48C125.246 70.44 124.632 71.6134 124.206 73C123.779 74.36 123.566 75.8934 123.566 77.6C123.566 79.28 123.806 80.8 124.286 82.16C124.792 83.4934 125.512 84.64 126.446 85.6C127.379 86.5334 128.526 87.2534 129.886 87.76C131.246 88.2667 132.792 88.52 134.526 88.52C135.246 88.52 135.992 88.48 136.766 88.4C137.566 88.3467 138.339 88.2667 139.086 88.16C139.859 88.0534 140.592 87.9334 141.286 87.8ZM74.8137 88V82.64H62.5337V60.28H56.2937V88H74.8137ZM88.6215 83.8C88.0882 83.8267 87.5282 83.84 86.9415 83.84C85.8482 83.84 84.9815 83.6667 84.3415 83.32C83.7282 82.9467 83.4215 82.2934 83.4215 81.36C83.4215 80.88 83.5282 80.48 83.7415 80.16C83.9548 79.84 84.2482 79.5867 84.6215 79.4C84.9949 79.2134 85.4215 79.0934 85.9015 79.04C86.4082 78.96 86.9415 78.92 87.5015 78.92C87.9015 78.92 88.3415 78.9467 88.8215 79C89.3015 79.0534 89.6615 79.1067 89.9015 79.16V83.68C89.5815 83.7334 89.1548 83.7734 88.6215 83.8ZM90.8615 67C89.6882 66.6 88.2215 66.4 86.4615 66.4C85.7682 66.4 85.0748 66.44 84.3815 66.52C83.7148 66.5734 83.0748 66.6534 82.4615 66.76C81.8482 66.84 81.2748 66.9467 80.7415 67.08C80.2348 67.1867 79.8082 67.2934 79.4615 67.4L80.2215 72.2C80.9415 71.9334 81.7948 71.7334 82.7815 71.6C83.7682 71.44 84.7682 71.36 85.7815 71.36C87.3015 71.36 88.3682 71.6667 88.9815 72.28C89.5948 72.8934 89.9015 73.7067 89.9015 74.72V75.28C89.5282 75.1734 89.0348 75.0934 88.4215 75.04C87.8348 74.96 87.1548 74.92 86.3815 74.92C85.2348 74.92 84.1282 75.04 83.0615 75.28C81.9949 75.4934 81.0482 75.8534 80.2215 76.36C79.3948 76.8667 78.7282 77.5467 78.2215 78.4C77.7415 79.2534 77.5015 80.2934 77.5015 81.52C77.5015 82.8 77.7148 83.88 78.1415 84.76C78.5682 85.64 79.1815 86.36 79.9815 86.92C80.7815 87.4534 81.7282 87.84 82.8215 88.08C83.9415 88.32 85.1815 88.44 86.5415 88.44C88.7015 88.44 90.5415 88.3067 92.0615 88.04C93.5815 87.8 94.7682 87.5867 95.6215 87.4V75C95.6215 73.6934 95.4748 72.5067 95.1815 71.44C94.8882 70.3734 94.3815 69.4667 93.6615 68.72C92.9682 67.9734 92.0349 67.4 90.8615 67ZM101.011 67.68C102.024 67.3867 103.331 67.12 104.931 66.88C106.531 66.6134 108.211 66.48 109.971 66.48C111.758 66.48 113.238 66.72 114.411 67.2C115.611 67.6534 116.558 68.3067 117.251 69.16C117.944 70.0134 118.438 71.0267 118.731 72.2C119.024 73.3734 119.171 74.68 119.171 76.12V88H113.211V76.84C113.211 74.92 112.958 73.56 112.451 72.76C111.944 71.96 110.998 71.56 109.611 71.56C109.184 71.56 108.731 71.5867 108.251 71.64C107.771 71.6667 107.344 71.7067 106.971 71.76V88H101.011V67.68Z" fill="#C3073F"/>
</svg>
